# github.com/user/media-manager/internal/app
internal/app/app.go:24:18: undefined: views.MainView
internal/app/app.go:140:20: undefined: views.NewMainView
2025/07/10 10:54:15 Opening directory: ./media
[DEBUG] Attempting to load config...
[DEBUG] Config file path: /home/josh/.media-manager/config.json
[DEBUG] Read 319 bytes from config file.
[DEBUG] Config loaded: &{DatabasePath:/home/josh/.media-manager/media.db ThumbnailDir:/home/josh/.media-manager/thumbnails ThumbnailSize:300 MediaDirs:[./media] MainContentSplitOffset:0.10394982 SidebarSplitOffset:0.95 WindowWidth:0 WindowHeight:0 WindowX:0 WindowY:0}
[DEBUG] MediaDirs overridden by command line argument: [./media]
2025/07/10 10:54:15 [DEBUG] main.go: Using DB path: /home/josh/.media-manager/media.db
[DEBUG] Attempting to load config...
[DEBUG] Config file path: /home/josh/.media-manager/config.json
[DEBUG] Read 319 bytes from config file.
[DEBUG] Config loaded: &{DatabasePath:/home/josh/.media-manager/media.db ThumbnailDir:/home/josh/.media-manager/thumbnails ThumbnailSize:300 MediaDirs:[./media] MainContentSplitOffset:0.10394982 SidebarSplitOffset:0.95 WindowWidth:0 WindowHeight:0 WindowX:0 WindowY:0}
[DEBUG] MediaDirs overridden by command line argument: [./media]
2025/07/10 10:54:15 [INFO] Cleared previews: 1 records updated. Before: 1, After: 0
2025/07/10 10:54:15 [DEBUG] main.go: Passing dir to app: ./media
[DEBUG] Attempting to load config...
[DEBUG] Config file path: /home/josh/.media-manager/config.json
[DEBUG] Read 319 bytes from config file.
[DEBUG] Config loaded: &{DatabasePath:/home/josh/.media-manager/media.db ThumbnailDir:/home/josh/.media-manager/thumbnails ThumbnailSize:300 MediaDirs:[./media] MainContentSplitOffset:0.10394982 SidebarSplitOffset:0.95 WindowWidth:0 WindowHeight:0 WindowX:0 WindowY:0}
[DEBUG] MediaDirs overridden by command line argument: [./media]
[DEBUG] CLEAR_DB_ON_START is true: will clear previews after init.
[DEBUG] app.go: Received mediaDir: ./media
[DEBUG] app.go: Using default window size and centering on screen.
[DEBUG] NewMediaCard: Creating card for GoneNutty.avi (Type: 1)
[DEBUG] setupContent: Setting up content for GoneNutty.avi (Type: 1)
[DEBUG] generateGifPreview called for GoneNutty.avi
[DEBUG] NewMediaCard: Creating card for MrBean.3gp (Type: 1)
[DEBUG] setupContent: Setting up content for MrBean.3gp (Type: 1)
[DEBUG] NewMediaCard: Creating card for Sample_V_mpeg1_A_mpeg1Layer2.mp4 (Type: 1)
[DEBUG] setupContent: Setting up content for Sample_V_mpeg1_A_mpeg1Layer2.mp4 (Type: 1)
[DEBUG] generateGifPreview called for MrBean.3gp
[DEBUG] NewMediaCard: Creating card for big_buck_bunny.jpg (Type: 0)
[DEBUG] setupContent: Setting up content for big_buck_bunny.jpg (Type: 0)
[DEBUG] generateGifPreview called for Sample_V_mpeg1_A_mpeg1Layer2.mp4
[DEBUG] generateImageThumbnail called for big_buck_bunny.jpg
[DEBUG] NewMediaCard: Creating card for big_buck_bunny.mp4 (Type: 1)
[DEBUG] setupContent: Setting up content for big_buck_bunny.mp4 (Type: 1)
[DEBUG] generateGifPreview called for big_buck_bunny.mp4
[DEBUG] NewMediaCard: Creating card for big_buck_bunny.webm (Type: 1)
[DEBUG] setupContent: Setting up content for big_buck_bunny.webm (Type: 1)
[DEBUG] generateGifPreview called for big_buck_bunny.webm
[DEBUG] NewMediaCard: Creating card for big_buck_bunny_thumbnail.jpg (Type: 0)
[DEBUG] setupContent: Setting up content for big_buck_bunny_thumbnail.jpg (Type: 0)
[DEBUG] NewMediaCard: Creating card for guqin.flv (Type: 1)
[DEBUG] setupContent: Setting up content for guqin.flv (Type: 1)
[DEBUG] generateImageThumbnail called for big_buck_bunny_thumbnail.jpg
[DEBUG] NewMediaCard: Creating card for zelda.flv (Type: 1)
[DEBUG] setupContent: Setting up content for zelda.flv (Type: 1)
[DEBUG] generateGifPreview called for guqin.flv
[DEBUG] generateGifPreview called for zelda.flv
[DEBUG] Selected folder: ./media
[DEBUG] views/main.go: RefreshMediaGrid called.
[DEBUG] NewMediaCard: Creating card for GoneNutty.avi (Type: 1)
[DEBUG] setupContent: Setting up content for GoneNutty.avi (Type: 1)
[DEBUG] NewMediaCard: Creating card for MrBean.3gp (Type: 1)
[DEBUG] setupContent: Setting up content for MrBean.3gp (Type: 1)
[DEBUG] NewMediaCard: Creating card for Sample_V_mpeg1_A_mpeg1Layer2.mp4 (Type: 1)
[DEBUG] setupContent: Setting up content for Sample_V_mpeg1_A_mpeg1Layer2.mp4 (Type: 1)
[DEBUG] NewMediaCard: Creating card for big_buck_bunny.jpg (Type: 0)
[DEBUG] setupContent: Setting up content for big_buck_bunny.jpg (Type: 0)
[DEBUG] NewMediaCard: Creating card for big_buck_bunny.mp4 (Type: 1)
[DEBUG] setupContent: Setting up content for big_buck_bunny.mp4 (Type: 1)
[DEBUG] generateGifPreview called for MrBean.3gp
[DEBUG] NewMediaCard: Creating card for big_buck_bunny.webm (Type: 1)
[DEBUG] setupContent: Setting up content for big_buck_bunny.webm (Type: 1)
[DEBUG] generateGifPreview called for Sample_V_mpeg1_A_mpeg1Layer2.mp4
[DEBUG] NewMediaCard: Creating card for big_buck_bunny_thumbnail.jpg (Type: 0)
[DEBUG] setupContent: Setting up content for big_buck_bunny_thumbnail.jpg (Type: 0)
[DEBUG] generateGifPreview called for GoneNutty.avi
[DEBUG] generateImageThumbnail called for big_buck_bunny.jpg
[DEBUG] NewMediaCard: Creating card for guqin.flv (Type: 1)
[DEBUG] setupContent: Setting up content for guqin.flv (Type: 1)
[DEBUG] generateGifPreview called for big_buck_bunny.mp4
[DEBUG] NewMediaCard: Creating card for zelda.flv (Type: 1)
[DEBUG] setupContent: Setting up content for zelda.flv (Type: 1)
[DEBUG] generateGifPreview called for big_buck_bunny.webm
Media grid refreshed
[DEBUG] generateImageThumbnail called for big_buck_bunny_thumbnail.jpg
[DEBUG] generateGifPreview called for guqin.flv
[DEBUG] generateGifPreview called for zelda.flv
[DEBUG] app.go: Starting initial scan of ./media
[DEBUG] Scanning directory: ./media
[DEBUG] Saving media file to DB: media/GoneNutty.avi
[DEBUG] Saving media file to DB: media/MrBean.3gp
[DEBUG] Saving media file to DB: media/Sample_V_mpeg1_A_mpeg1Layer2.mp4
[DEBUG] Saving media file to DB: media/big_buck_bunny.jpg
[DEBUG] Saving media file to DB: media/big_buck_bunny.mp4
[DEBUG] Saving media file to DB: media/big_buck_bunny.webm
[DEBUG] Saving media file to DB: media/big_buck_bunny_thumbnail.jpg
[DEBUG] Skipping non-media file: media/guqin.flv
[DEBUG] Skipping non-media file: media/zelda.flv
[DEBUG] Rebuilding missing animated previews...
[DEBUG] Found 5 videos with missing previews.
[DEBUG] Generating animated GIF preview for: media/GoneNutty.avi
[DEBUG] Running ffmpeg for GIF: [ffmpeg -i media/GoneNutty.avi -vf select='not(mod(t,2.323667))',setpts=N/FRAME_RATE/TB,fps=12,scale=180:101:force_original_aspect_ratio=increase,crop=180:101 -c:v gif -f gif -y /home/josh/.media-manager/thumbnails/61.gif]
[DEBUG] ffmpeg output: ffmpeg version n7.1.1 Copyright (c) 2000-2025 the FFmpeg developers
  built with gcc 15.1.1 (GCC) 20250425
  configuration: --prefix=/usr --disable-debug --disable-static --disable-stripping --enable-amf --enable-avisynth --enable-cuda-llvm --enable-lto --enable-fontconfig --enable-frei0r --enable-gmp --enable-gnutls --enable-gpl --enable-ladspa --enable-libaom --enable-libass --enable-libbluray --enable-libbs2b --enable-libdav1d --enable-libdrm --enable-libdvdnav --enable-libdvdread --enable-libfreetype --enable-libfribidi --enable-libglslang --enable-libgsm --enable-libharfbuzz --enable-libiec61883 --enable-libjack --enable-libjxl --enable-libmodplug --enable-libmp3lame --enable-libopencore_amrnb --enable-libopencore_amrwb --enable-libopenjpeg --enable-libopenmpt --enable-libopus --enable-libplacebo --enable-libpulse --enable-librav1e --enable-librsvg --enable-librubberband --enable-libsnappy --enable-libsoxr --enable-libspeex --enable-libsrt --enable-libssh --enable-libsvtav1 --enable-libtheora --enable-libv4l2 --enable-libvidstab --enable-libvmaf --enable-libvorbis --enable-libvpl --enable-libvpx --enable-libwebp --enable-libx264 --enable-libx265 --enable-libxcb --enable-libxml2 --enable-libxvid --enable-libzimg --enable-libzmq --enable-nvdec --enable-nvenc --enable-opencl --enable-opengl --enable-shared --enable-vapoursynth --enable-version3 --enable-vulkan
  libavutil      59. 39.100 / 59. 39.100
  libavcodec     61. 19.101 / 61. 19.101
  libavformat    61.  7.100 / 61.  7.100
  libavdevice    61.  3.100 / 61.  3.100
  libavfilter    10.  4.100 / 10.  4.100
  libswscale      8.  3.100 /  8.  3.100
  libswresample   5.  3.100 /  5.  3.100
  libpostproc    58.  3.100 / 58.  3.100
Input #0, avi, from 'media/GoneNutty.avi':
  Metadata:
    software        : Nandub v1.0rc2
  Duration: 00:04:38.84, start: 0.000000, bitrate: 1345 kb/s
  Stream #0:0: Video: mpeg4 (DX50 / 0x30355844), yuv420p, 640x352 [SAR 1:1 DAR 20:11], 1147 kb/s, 25 fps, 25 tbr, 25 tbn
  Stream #0:1: Audio: ac3 ([0] [0][0] / 0x2000), 48000 Hz, stereo, fltp, 192 kb/s
Stream mapping:
  Stream #0:0 -> #0:0 (mpeg4 (native) -> gif (native))
Press [q] to stop, [?] for help
[mpeg4 @ 0x55d935a33b00] Video uses a non-standard and wasteful way to store B-frames ('packed B-frames'). Consider using the mpeg4_unpack_bframes bitstream filter without encoding but stream copy to fix it.
[vf#0:0 @ 0x55d9359ff880] No filtered frames for output stream, trying to initialize anyway.
Output #0, gif, to '/home/josh/.media-manager/thumbnails/61.gif':
  Metadata:
    software        : Nandub v1.0rc2
    encoder         : Lavf61.7.100
  Stream #0:0: Video: gif, bgr8(progressive), 180x101 [SAR 505:506 DAR 450:253], q=2-31, 200 kb/s, 12 fps, 100 tbn
      Metadata:
        encoder         : Lavc61.19.101 gif
[out#0/gif @ 0x55d9359daa80] Error writing trailer: Invalid argument
[out#0/gif @ 0x55d9359daa80] video:0KiB audio:0KiB subtitle:0KiB other streams:0KiB global headers:0KiB muxing overhead: unknown
[out#0/gif @ 0x55d9359daa80] Output file is empty, nothing was encoded(check -ss / -t / -frames parameters if used)
frame=    0 fps=0.0 q=0.0 Lsize=       0KiB time=N/A bitrate=N/A speed=N/A    
Conversion failed!

[ERROR] ffmpeg error: exit status 234
[ERROR] Failed to generate preview for media/GoneNutty.avi: failed to generate animated preview: exit status 234, output: ffmpeg version n7.1.1 Copyright (c) 2000-2025 the FFmpeg developers
  built with gcc 15.1.1 (GCC) 20250425
  configuration: --prefix=/usr --disable-debug --disable-static --disable-stripping --enable-amf --enable-avisynth --enable-cuda-llvm --enable-lto --enable-fontconfig --enable-frei0r --enable-gmp --enable-gnutls --enable-gpl --enable-ladspa --enable-libaom --enable-libass --enable-libbluray --enable-libbs2b --enable-libdav1d --enable-libdrm --enable-libdvdnav --enable-libdvdread --enable-libfreetype --enable-libfribidi --enable-libglslang --enable-libgsm --enable-libharfbuzz --enable-libiec61883 --enable-libjack --enable-libjxl --enable-libmodplug --enable-libmp3lame --enable-libopencore_amrnb --enable-libopencore_amrwb --enable-libopenjpeg --enable-libopenmpt --enable-libopus --enable-libplacebo --enable-libpulse --enable-librav1e --enable-librsvg --enable-librubberband --enable-libsnappy --enable-libsoxr --enable-libspeex --enable-libsrt --enable-libssh --enable-libsvtav1 --enable-libtheora --enable-libv4l2 --enable-libvidstab --enable-libvmaf --enable-libvorbis --enable-libvpl --enable-libvpx --enable-libwebp --enable-libx264 --enable-libx265 --enable-libxcb --enable-libxml2 --enable-libxvid --enable-libzimg --enable-libzmq --enable-nvdec --enable-nvenc --enable-opencl --enable-opengl --enable-shared --enable-vapoursynth --enable-version3 --enable-vulkan
  libavutil      59. 39.100 / 59. 39.100
  libavcodec     61. 19.101 / 61. 19.101
  libavformat    61.  7.100 / 61.  7.100
  libavdevice    61.  3.100 / 61.  3.100
  libavfilter    10.  4.100 / 10.  4.100
  libswscale      8.  3.100 /  8.  3.100
  libswresample   5.  3.100 /  5.  3.100
  libpostproc    58.  3.100 / 58.  3.100
Input #0, avi, from 'media/GoneNutty.avi':
  Metadata:
    software        : Nandub v1.0rc2
  Duration: 00:04:38.84, start: 0.000000, bitrate: 1345 kb/s
  Stream #0:0: Video: mpeg4 (DX50 / 0x30355844), yuv420p, 640x352 [SAR 1:1 DAR 20:11], 1147 kb/s, 25 fps, 25 tbr, 25 tbn
  Stream #0:1: Audio: ac3 ([0] [0][0] / 0x2000), 48000 Hz, stereo, fltp, 192 kb/s
Stream mapping:
  Stream #0:0 -> #0:0 (mpeg4 (native) -> gif (native))
Press [q] to stop, [?] for help
[mpeg4 @ 0x55d935a33b00] Video uses a non-standard and wasteful way to store B-frames ('packed B-frames'). Consider using the mpeg4_unpack_bframes bitstream filter without encoding but stream copy to fix it.
[vf#0:0 @ 0x55d9359ff880] No filtered frames for output stream, trying to initialize anyway.
Output #0, gif, to '/home/josh/.media-manager/thumbnails/61.gif':
  Metadata:
    software        : Nandub v1.0rc2
    encoder         : Lavf61.7.100
  Stream #0:0: Video: gif, bgr8(progressive), 180x101 [SAR 505:506 DAR 450:253], q=2-31, 200 kb/s, 12 fps, 100 tbn
      Metadata:
        encoder         : Lavc61.19.101 gif
[out#0/gif @ 0x55d9359daa80] Error writing trailer: Invalid argument
[out#0/gif @ 0x55d9359daa80] video:0KiB audio:0KiB subtitle:0KiB other streams:0KiB global headers:0KiB muxing overhead: unknown
[out#0/gif @ 0x55d9359daa80] Output file is empty, nothing was encoded(check -ss / -t / -frames parameters if used)
frame=    0 fps=0.0 q=0.0 Lsize=       0KiB time=N/A bitrate=N/A speed=N/A    
Conversion failed!


[DEBUG] Generating animated GIF preview for: media/Sample_V_mpeg1_A_mpeg1Layer2.mp4
[DEBUG] Running ffmpeg for GIF: [ffmpeg -i media/Sample_V_mpeg1_A_mpeg1Layer2.mp4 -vf select='not(mod(t,0.667333))',setpts=N/FRAME_RATE/TB,fps=12,scale=180:101:force_original_aspect_ratio=increase,crop=180:101 -c:v gif -f gif -y /home/josh/.media-manager/thumbnails/62.gif]
[DEBUG] ffmpeg output: ffmpeg version n7.1.1 Copyright (c) 2000-2025 the FFmpeg developers
  built with gcc 15.1.1 (GCC) 20250425
  configuration: --prefix=/usr --disable-debug --disable-static --disable-stripping --enable-amf --enable-avisynth --enable-cuda-llvm --enable-lto --enable-fontconfig --enable-frei0r --enable-gmp --enable-gnutls --enable-gpl --enable-ladspa --enable-libaom --enable-libass --enable-libbluray --enable-libbs2b --enable-libdav1d --enable-libdrm --enable-libdvdnav --enable-libdvdread --enable-libfreetype --enable-libfribidi --enable-libglslang --enable-libgsm --enable-libharfbuzz --enable-libiec61883 --enable-libjack --enable-libjxl --enable-libmodplug --enable-libmp3lame --enable-libopencore_amrnb --enable-libopencore_amrwb --enable-libopenjpeg --enable-libopenmpt --enable-libopus --enable-libplacebo --enable-libpulse --enable-librav1e --enable-librsvg --enable-librubberband --enable-libsnappy --enable-libsoxr --enable-libspeex --enable-libsrt --enable-libssh --enable-libsvtav1 --enable-libtheora --enable-libv4l2 --enable-libvidstab --enable-libvmaf --enable-libvorbis --enable-libvpl --enable-libvpx --enable-libwebp --enable-libx264 --enable-libx265 --enable-libxcb --enable-libxml2 --enable-libxvid --enable-libzimg --enable-libzmq --enable-nvdec --enable-nvenc --enable-opencl --enable-opengl --enable-shared --enable-vapoursynth --enable-version3 --enable-vulkan
  libavutil      59. 39.100 / 59. 39.100
  libavcodec     61. 19.101 / 61. 19.101
  libavformat    61.  7.100 / 61.  7.100
  libavdevice    61.  3.100 / 61.  3.100
  libavfilter    10.  4.100 / 10.  4.100
  libswscale      8.  3.100 /  8.  3.100
  libswresample   5.  3.100 /  5.  3.100
  libpostproc    58.  3.100 / 58.  3.100
[mov,mp4,m4a,3gp,3g2,mj2 @ 0x5583c79cc700] All samples in data stream index:id [0:2] have zero duration, stream set to be discarded by default. Override using AVStream->discard or -discard for ffmpeg command.
[mov,mp4,m4a,3gp,3g2,mj2 @ 0x5583c79cc700] All samples in data stream index:id [1:1] have zero duration, stream set to be discarded by default. Override using AVStream->discard or -discard for ffmpeg command.
Input #0, mov,mp4,m4a,3gp,3g2,mj2, from 'media/Sample_V_mpeg1_A_mpeg1Layer2.mp4':
  Metadata:
    major_brand     : mp42
    minor_version   : 0
    compatible_brands: 3gp4mp423gp5jp20
    creation_time   : 2004-10-24T18:08:41.000000Z
  Duration: 00:01:20.08, start: 0.000000, bitrate: 172 kb/s
  Stream #0:0[0x2](und): Data: none (mp4s / 0x7334706D), 184 kb/s (default)
      Metadata:
        creation_time   : 2004-10-24T18:08:41.000000Z
  Stream #0:1[0x1](und): Data: none (mp4s / 0x7334706D), 224 kb/s (default)
      Metadata:
        creation_time   : 2004-10-24T18:08:41.000000Z
  Stream #0:2[0x3](und): Audio: mp3 (mp3float) (mp4a / 0x6134706D), 44100 Hz, mono, fltp, 48 kb/s (default)
      Metadata:
        creation_time   : 2004-10-24T18:08:41.000000Z
        vendor_id       : [0][0][0][0]
  Stream #0:3[0x4](und): Video: mpeg1video (mp4v / 0x7634706D), yuv420p(tv, progressive), 176x136 [SAR 1:1 DAR 22:17], 104857 kb/s, 25.01 fps, 25 tbr, 90k tbn (default)
      Metadata:
        creation_time   : 2004-10-24T18:08:41.000000Z
        vendor_id       : [0][0][0][0]
        encoder         : MPEG-4 Visual
      Side data:
        cpb: bitrate max/min/avg: 0/0/0 buffer size: 131072 vbv_delay: N/A
Stream mapping:
  Stream #0:3 -> #0:0 (mpeg1video (native) -> gif (native))
Press [q] to stop, [?] for help
[mpeg1video @ 0x5583c7a04940] too many threads/slices (10), reducing to 9
[vf#0:0 @ 0x5583c7a0f280] No filtered frames for output stream, trying to initialize anyway.
Output #0, gif, to '/home/josh/.media-manager/thumbnails/62.gif':
  Metadata:
    major_brand     : mp42
    minor_version   : 0
    compatible_brands: 3gp4mp423gp5jp20
    encoder         : Lavf61.7.100
  Stream #0:0(und): Video: gif, bgr8(progressive), 180x101 [SAR 1529:1530 DAR 3058:1717], q=2-31, 200 kb/s, 12 fps, 100 tbn (default)
      Metadata:
        creation_time   : 2004-10-24T18:08:41.000000Z
        vendor_id       : [0][0][0][0]
        encoder         : Lavc61.19.101 gif
[out#0/gif @ 0x5583c7a0ee80] Error writing trailer: Invalid argument
[out#0/gif @ 0x5583c7a0ee80] video:0KiB audio:0KiB subtitle:0KiB other streams:0KiB global headers:0KiB muxing overhead: unknown
[out#0/gif @ 0x5583c7a0ee80] Output file is empty, nothing was encoded(check -ss / -t / -frames parameters if used)
frame=    0 fps=0.0 q=0.0 Lsize=       0KiB time=N/A bitrate=N/A speed=N/A    
Conversion failed!

[ERROR] ffmpeg error: exit status 234
[ERROR] Failed to generate preview for media/Sample_V_mpeg1_A_mpeg1Layer2.mp4: failed to generate animated preview: exit status 234, output: ffmpeg version n7.1.1 Copyright (c) 2000-2025 the FFmpeg developers
  built with gcc 15.1.1 (GCC) 20250425
  configuration: --prefix=/usr --disable-debug --disable-static --disable-stripping --enable-amf --enable-avisynth --enable-cuda-llvm --enable-lto --enable-fontconfig --enable-frei0r --enable-gmp --enable-gnutls --enable-gpl --enable-ladspa --enable-libaom --enable-libass --enable-libbluray --enable-libbs2b --enable-libdav1d --enable-libdrm --enable-libdvdnav --enable-libdvdread --enable-libfreetype --enable-libfribidi --enable-libglslang --enable-libgsm --enable-libharfbuzz --enable-libiec61883 --enable-libjack --enable-libjxl --enable-libmodplug --enable-libmp3lame --enable-libopencore_amrnb --enable-libopencore_amrwb --enable-libopenjpeg --enable-libopenmpt --enable-libopus --enable-libplacebo --enable-libpulse --enable-librav1e --enable-librsvg --enable-librubberband --enable-libsnappy --enable-libsoxr --enable-libspeex --enable-libsrt --enable-libssh --enable-libsvtav1 --enable-libtheora --enable-libv4l2 --enable-libvidstab --enable-libvmaf --enable-libvorbis --enable-libvpl --enable-libvpx --enable-libwebp --enable-libx264 --enable-libx265 --enable-libxcb --enable-libxml2 --enable-libxvid --enable-libzimg --enable-libzmq --enable-nvdec --enable-nvenc --enable-opencl --enable-opengl --enable-shared --enable-vapoursynth --enable-version3 --enable-vulkan
  libavutil      59. 39.100 / 59. 39.100
  libavcodec     61. 19.101 / 61. 19.101
  libavformat    61.  7.100 / 61.  7.100
  libavdevice    61.  3.100 / 61.  3.100
  libavfilter    10.  4.100 / 10.  4.100
  libswscale      8.  3.100 /  8.  3.100
  libswresample   5.  3.100 /  5.  3.100
  libpostproc    58.  3.100 / 58.  3.100
[mov,mp4,m4a,3gp,3g2,mj2 @ 0x5583c79cc700] All samples in data stream index:id [0:2] have zero duration, stream set to be discarded by default. Override using AVStream->discard or -discard for ffmpeg command.
[mov,mp4,m4a,3gp,3g2,mj2 @ 0x5583c79cc700] All samples in data stream index:id [1:1] have zero duration, stream set to be discarded by default. Override using AVStream->discard or -discard for ffmpeg command.
Input #0, mov,mp4,m4a,3gp,3g2,mj2, from 'media/Sample_V_mpeg1_A_mpeg1Layer2.mp4':
  Metadata:
    major_brand     : mp42
    minor_version   : 0
    compatible_brands: 3gp4mp423gp5jp20
    creation_time   : 2004-10-24T18:08:41.000000Z
  Duration: 00:01:20.08, start: 0.000000, bitrate: 172 kb/s
  Stream #0:0[0x2](und): Data: none (mp4s / 0x7334706D), 184 kb/s (default)
      Metadata:
        creation_time   : 2004-10-24T18:08:41.000000Z
  Stream #0:1[0x1](und): Data: none (mp4s / 0x7334706D), 224 kb/s (default)
      Metadata:
        creation_time   : 2004-10-24T18:08:41.000000Z
  Stream #0:2[0x3](und): Audio: mp3 (mp3float) (mp4a / 0x6134706D), 44100 Hz, mono, fltp, 48 kb/s (default)
      Metadata:
        creation_time   : 2004-10-24T18:08:41.000000Z
        vendor_id       : [0][0][0][0]
  Stream #0:3[0x4](und): Video: mpeg1video (mp4v / 0x7634706D), yuv420p(tv, progressive), 176x136 [SAR 1:1 DAR 22:17], 104857 kb/s, 25.01 fps, 25 tbr, 90k tbn (default)
      Metadata:
        creation_time   : 2004-10-24T18:08:41.000000Z
        vendor_id       : [0][0][0][0]
        encoder         : MPEG-4 Visual
      Side data:
        cpb: bitrate max/min/avg: 0/0/0 buffer size: 131072 vbv_delay: N/A
Stream mapping:
  Stream #0:3 -> #0:0 (mpeg1video (native) -> gif (native))
Press [q] to stop, [?] for help
[mpeg1video @ 0x5583c7a04940] too many threads/slices (10), reducing to 9
[vf#0:0 @ 0x5583c7a0f280] No filtered frames for output stream, trying to initialize anyway.
Output #0, gif, to '/home/josh/.media-manager/thumbnails/62.gif':
  Metadata:
    major_brand     : mp42
    minor_version   : 0
    compatible_brands: 3gp4mp423gp5jp20
    encoder         : Lavf61.7.100
  Stream #0:0(und): Video: gif, bgr8(progressive), 180x101 [SAR 1529:1530 DAR 3058:1717], q=2-31, 200 kb/s, 12 fps, 100 tbn (default)
      Metadata:
        creation_time   : 2004-10-24T18:08:41.000000Z
        vendor_id       : [0][0][0][0]
        encoder         : Lavc61.19.101 gif
[out#0/gif @ 0x5583c7a0ee80] Error writing trailer: Invalid argument
[out#0/gif @ 0x5583c7a0ee80] video:0KiB audio:0KiB subtitle:0KiB other streams:0KiB global headers:0KiB muxing overhead: unknown
[out#0/gif @ 0x5583c7a0ee80] Output file is empty, nothing was encoded(check -ss / -t / -frames parameters if used)
frame=    0 fps=0.0 q=0.0 Lsize=       0KiB time=N/A bitrate=N/A speed=N/A    
Conversion failed!


[DEBUG] Generating animated GIF preview for: media/big_buck_bunny.mp4
[DEBUG] Running ffmpeg for GIF: [ffmpeg -i media/big_buck_bunny.mp4 -vf select='not(mod(t,0.500792))',setpts=N/FRAME_RATE/TB,fps=12,scale=180:101:force_original_aspect_ratio=increase,crop=180:101 -c:v gif -f gif -y /home/josh/.media-manager/thumbnails/64.gif]
[DEBUG] ffmpeg output: ffmpeg version n7.1.1 Copyright (c) 2000-2025 the FFmpeg developers
  built with gcc 15.1.1 (GCC) 20250425
  configuration: --prefix=/usr --disable-debug --disable-static --disable-stripping --enable-amf --enable-avisynth --enable-cuda-llvm --enable-lto --enable-fontconfig --enable-frei0r --enable-gmp --enable-gnutls --enable-gpl --enable-ladspa --enable-libaom --enable-libass --enable-libbluray --enable-libbs2b --enable-libdav1d --enable-libdrm --enable-libdvdnav --enable-libdvdread --enable-libfreetype --enable-libfribidi --enable-libglslang --enable-libgsm --enable-libharfbuzz --enable-libiec61883 --enable-libjack --enable-libjxl --enable-libmodplug --enable-libmp3lame --enable-libopencore_amrnb --enable-libopencore_amrwb --enable-libopenjpeg --enable-libopenmpt --enable-libopus --enable-libplacebo --enable-libpulse --enable-librav1e --enable-librsvg --enable-librubberband --enable-libsnappy --enable-libsoxr --enable-libspeex --enable-libsrt --enable-libssh --enable-libsvtav1 --enable-libtheora --enable-libv4l2 --enable-libvidstab --enable-libvmaf --enable-libvorbis --enable-libvpl --enable-libvpx --enable-libwebp --enable-libx264 --enable-libx265 --enable-libxcb --enable-libxml2 --enable-libxvid --enable-libzimg --enable-libzmq --enable-nvdec --enable-nvenc --enable-opencl --enable-opengl --enable-shared --enable-vapoursynth --enable-version3 --enable-vulkan
  libavutil      59. 39.100 / 59. 39.100
  libavcodec     61. 19.101 / 61. 19.101
  libavformat    61.  7.100 / 61.  7.100
  libavdevice    61.  3.100 / 61.  3.100
  libavfilter    10.  4.100 / 10.  4.100
  libswscale      8.  3.100 /  8.  3.100
  libswresample   5.  3.100 /  5.  3.100
  libpostproc    58.  3.100 / 58.  3.100
Input #0, mov,mp4,m4a,3gp,3g2,mj2, from 'media/big_buck_bunny.mp4':
  Metadata:
    major_brand     : mp42
    minor_version   : 1
    compatible_brands: mp42avc1
    creation_time   : 2010-02-09T01:55:39.000000Z
  Duration: 00:01:00.10, start: 0.000000, bitrate: 733 kb/s
  Stream #0:0[0x1](eng): Audio: aac (LC) (mp4a / 0x6134706D), 22050 Hz, stereo, fltp, 65 kb/s (default)
      Metadata:
        creation_time   : 2010-02-09T01:55:39.000000Z
        handler_name    : Apple Sound Media Handler
        vendor_id       : [0][0][0][0]
  Stream #0:1[0x2](eng): Video: h264 (Constrained Baseline) (avc1 / 0x31637661), yuv420p(tv, smpte170m/smpte170m/bt709, progressive), 640x360, 612 kb/s, 23.96 fps, 24 tbr, 600 tbn (default)
      Metadata:
        creation_time   : 2010-02-09T01:55:39.000000Z
        handler_name    : Apple Video Media Handler
        vendor_id       : [0][0][0][0]
  Stream #0:2[0x3](eng): Data: none (rtp  / 0x20707472), 45 kb/s
      Metadata:
        creation_time   : 2010-02-09T01:55:39.000000Z
        handler_name    : hint media handler
  Stream #0:3[0x4](eng): Data: none (rtp  / 0x20707472), 5 kb/s
      Metadata:
        creation_time   : 2010-02-09T01:55:39.000000Z
        handler_name    : hint media handler
Stream mapping:
  Stream #0:1 -> #0:0 (h264 (native) -> gif (native))
Press [q] to stop, [?] for help
[vf#0:0 @ 0x555f6bc889c0] No filtered frames for output stream, trying to initialize anyway.
Output #0, gif, to '/home/josh/.media-manager/thumbnails/64.gif':
  Metadata:
    major_brand     : mp42
    minor_version   : 1
    compatible_brands: mp42avc1
    encoder         : Lavf61.7.100
  Stream #0:0(eng): Video: gif, bgr8(progressive), 180x101, q=2-31, 200 kb/s, 12 fps, 100 tbn (default)
      Metadata:
        creation_time   : 2010-02-09T01:55:39.000000Z
        handler_name    : Apple Video Media Handler
        vendor_id       : [0][0][0][0]
        encoder         : Lavc61.19.101 gif
[out#0/gif @ 0x555f6bc0e380] Error writing trailer: Invalid argument
[out#0/gif @ 0x555f6bc0e380] video:0KiB audio:0KiB subtitle:0KiB other streams:0KiB global headers:0KiB muxing overhead: unknown
[out#0/gif @ 0x555f6bc0e380] Output file is empty, nothing was encoded(check -ss / -t / -frames parameters if used)
frame=    0 fps=0.0 q=0.0 Lsize=       0KiB time=N/A bitrate=N/A speed=N/A    
Conversion failed!

[ERROR] ffmpeg error: exit status 234
[ERROR] Failed to generate preview for media/big_buck_bunny.mp4: failed to generate animated preview: exit status 234, output: ffmpeg version n7.1.1 Copyright (c) 2000-2025 the FFmpeg developers
  built with gcc 15.1.1 (GCC) 20250425
  configuration: --prefix=/usr --disable-debug --disable-static --disable-stripping --enable-amf --enable-avisynth --enable-cuda-llvm --enable-lto --enable-fontconfig --enable-frei0r --enable-gmp --enable-gnutls --enable-gpl --enable-ladspa --enable-libaom --enable-libass --enable-libbluray --enable-libbs2b --enable-libdav1d --enable-libdrm --enable-libdvdnav --enable-libdvdread --enable-libfreetype --enable-libfribidi --enable-libglslang --enable-libgsm --enable-libharfbuzz --enable-libiec61883 --enable-libjack --enable-libjxl --enable-libmodplug --enable-libmp3lame --enable-libopencore_amrnb --enable-libopencore_amrwb --enable-libopenjpeg --enable-libopenmpt --enable-libopus --enable-libplacebo --enable-libpulse --enable-librav1e --enable-librsvg --enable-librubberband --enable-libsnappy --enable-libsoxr --enable-libspeex --enable-libsrt --enable-libssh --enable-libsvtav1 --enable-libtheora --enable-libv4l2 --enable-libvidstab --enable-libvmaf --enable-libvorbis --enable-libvpl --enable-libvpx --enable-libwebp --enable-libx264 --enable-libx265 --enable-libxcb --enable-libxml2 --enable-libxvid --enable-libzimg --enable-libzmq --enable-nvdec --enable-nvenc --enable-opencl --enable-opengl --enable-shared --enable-vapoursynth --enable-version3 --enable-vulkan
  libavutil      59. 39.100 / 59. 39.100
  libavcodec     61. 19.101 / 61. 19.101
  libavformat    61.  7.100 / 61.  7.100
  libavdevice    61.  3.100 / 61.  3.100
  libavfilter    10.  4.100 / 10.  4.100
  libswscale      8.  3.100 /  8.  3.100
  libswresample   5.  3.100 /  5.  3.100
  libpostproc    58.  3.100 / 58.  3.100
Input #0, mov,mp4,m4a,3gp,3g2,mj2, from 'media/big_buck_bunny.mp4':
  Metadata:
    major_brand     : mp42
    minor_version   : 1
    compatible_brands: mp42avc1
    creation_time   : 2010-02-09T01:55:39.000000Z
  Duration: 00:01:00.10, start: 0.000000, bitrate: 733 kb/s
  Stream #0:0[0x1](eng): Audio: aac (LC) (mp4a / 0x6134706D), 22050 Hz, stereo, fltp, 65 kb/s (default)
      Metadata:
        creation_time   : 2010-02-09T01:55:39.000000Z
        handler_name    : Apple Sound Media Handler
        vendor_id       : [0][0][0][0]
  Stream #0:1[0x2](eng): Video: h264 (Constrained Baseline) (avc1 / 0x31637661), yuv420p(tv, smpte170m/smpte170m/bt709, progressive), 640x360, 612 kb/s, 23.96 fps, 24 tbr, 600 tbn (default)
      Metadata:
        creation_time   : 2010-02-09T01:55:39.000000Z
        handler_name    : Apple Video Media Handler
        vendor_id       : [0][0][0][0]
  Stream #0:2[0x3](eng): Data: none (rtp  / 0x20707472), 45 kb/s
      Metadata:
        creation_time   : 2010-02-09T01:55:39.000000Z
        handler_name    : hint media handler
  Stream #0:3[0x4](eng): Data: none (rtp  / 0x20707472), 5 kb/s
      Metadata:
        creation_time   : 2010-02-09T01:55:39.000000Z
        handler_name    : hint media handler
Stream mapping:
  Stream #0:1 -> #0:0 (h264 (native) -> gif (native))
Press [q] to stop, [?] for help
[vf#0:0 @ 0x555f6bc889c0] No filtered frames for output stream, trying to initialize anyway.
Output #0, gif, to '/home/josh/.media-manager/thumbnails/64.gif':
  Metadata:
    major_brand     : mp42
    minor_version   : 1
    compatible_brands: mp42avc1
    encoder         : Lavf61.7.100
  Stream #0:0(eng): Video: gif, bgr8(progressive), 180x101, q=2-31, 200 kb/s, 12 fps, 100 tbn (default)
      Metadata:
        creation_time   : 2010-02-09T01:55:39.000000Z
        handler_name    : Apple Video Media Handler
        vendor_id       : [0][0][0][0]
        encoder         : Lavc61.19.101 gif
[out#0/gif @ 0x555f6bc0e380] Error writing trailer: Invalid argument
[out#0/gif @ 0x555f6bc0e380] video:0KiB audio:0KiB subtitle:0KiB other streams:0KiB global headers:0KiB muxing overhead: unknown
[out#0/gif @ 0x555f6bc0e380] Output file is empty, nothing was encoded(check -ss / -t / -frames parameters if used)
frame=    0 fps=0.0 q=0.0 Lsize=       0KiB time=N/A bitrate=N/A speed=N/A    
Conversion failed!


[DEBUG] Generating animated GIF preview for: media/big_buck_bunny.webm
[DEBUG] Running ffmpeg for GIF: [ffmpeg -i media/big_buck_bunny.webm -vf select='not(mod(t,0.512575))',setpts=N/FRAME_RATE/TB,fps=12,scale=180:101:force_original_aspect_ratio=increase,crop=180:101 -c:v gif -f gif -y /home/josh/.media-manager/thumbnails/65.gif]
[DEBUG] ffmpeg output: ffmpeg version n7.1.1 Copyright (c) 2000-2025 the FFmpeg developers
  built with gcc 15.1.1 (GCC) 20250425
  configuration: --prefix=/usr --disable-debug --disable-static --disable-stripping --enable-amf --enable-avisynth --enable-cuda-llvm --enable-lto --enable-fontconfig --enable-frei0r --enable-gmp --enable-gnutls --enable-gpl --enable-ladspa --enable-libaom --enable-libass --enable-libbluray --enable-libbs2b --enable-libdav1d --enable-libdrm --enable-libdvdnav --enable-libdvdread --enable-libfreetype --enable-libfribidi --enable-libglslang --enable-libgsm --enable-libharfbuzz --enable-libiec61883 --enable-libjack --enable-libjxl --enable-libmodplug --enable-libmp3lame --enable-libopencore_amrnb --enable-libopencore_amrwb --enable-libopenjpeg --enable-libopenmpt --enable-libopus --enable-libplacebo --enable-libpulse --enable-librav1e --enable-librsvg --enable-librubberband --enable-libsnappy --enable-libsoxr --enable-libspeex --enable-libsrt --enable-libssh --enable-libsvtav1 --enable-libtheora --enable-libv4l2 --enable-libvidstab --enable-libvmaf --enable-libvorbis --enable-libvpl --enable-libvpx --enable-libwebp --enable-libx264 --enable-libx265 --enable-libxcb --enable-libxml2 --enable-libxvid --enable-libzimg --enable-libzmq --enable-nvdec --enable-nvenc --enable-opencl --enable-opengl --enable-shared --enable-vapoursynth --enable-version3 --enable-vulkan
  libavutil      59. 39.100 / 59. 39.100
  libavcodec     61. 19.101 / 61. 19.101
  libavformat    61.  7.100 / 61.  7.100
  libavdevice    61.  3.100 / 61.  3.100
  libavfilter    10.  4.100 / 10.  4.100
  libswscale      8.  3.100 /  8.  3.100
  libswresample   5.  3.100 /  5.  3.100
  libpostproc    58.  3.100 / 58.  3.100
Input #0, matroska,webm, from 'media/big_buck_bunny.webm':
  Metadata:
    encoder         : Flix
  Duration: 00:01:01.51, start: 0.000000, bitrate: 659 kb/s
  Stream #0:0(eng): Video: vp8, yuv420p(progressive), 640x360, SAR 1:1 DAR 16:9, 24 fps, 24 tbr, 1k tbn (default)
      Metadata:
        title           : VP8 video stream
  Stream #0:1(eng): Audio: vorbis, 22050 Hz, mono, fltp (default)
Stream mapping:
  Stream #0:0 -> #0:0 (vp8 (native) -> gif (native))
Press [q] to stop, [?] for help
[vf#0:0 @ 0x56187ff63500] No filtered frames for output stream, trying to initialize anyway.
Output #0, gif, to '/home/josh/.media-manager/thumbnails/65.gif':
  Metadata:
    encoder         : Lavf61.7.100
  Stream #0:0(eng): Video: gif, bgr8(progressive), 180x101 [SAR 404:405 DAR 16:9], q=2-31, 200 kb/s, 12 fps, 100 tbn (default)
      Metadata:
        title           : VP8 video stream
        encoder         : Lavc61.19.101 gif
[out#0/gif @ 0x56187ff72a80] Error writing trailer: Invalid argument
[out#0/gif @ 0x56187ff72a80] video:0KiB audio:0KiB subtitle:0KiB other streams:0KiB global headers:0KiB muxing overhead: unknown
[out#0/gif @ 0x56187ff72a80] Output file is empty, nothing was encoded(check -ss / -t / -frames parameters if used)
frame=    0 fps=0.0 q=0.0 Lsize=       0KiB time=N/A bitrate=N/A speed=N/A    
Conversion failed!

[ERROR] ffmpeg error: exit status 234
[ERROR] Failed to generate preview for media/big_buck_bunny.webm: failed to generate animated preview: exit status 234, output: ffmpeg version n7.1.1 Copyright (c) 2000-2025 the FFmpeg developers
  built with gcc 15.1.1 (GCC) 20250425
  configuration: --prefix=/usr --disable-debug --disable-static --disable-stripping --enable-amf --enable-avisynth --enable-cuda-llvm --enable-lto --enable-fontconfig --enable-frei0r --enable-gmp --enable-gnutls --enable-gpl --enable-ladspa --enable-libaom --enable-libass --enable-libbluray --enable-libbs2b --enable-libdav1d --enable-libdrm --enable-libdvdnav --enable-libdvdread --enable-libfreetype --enable-libfribidi --enable-libglslang --enable-libgsm --enable-libharfbuzz --enable-libiec61883 --enable-libjack --enable-libjxl --enable-libmodplug --enable-libmp3lame --enable-libopencore_amrnb --enable-libopencore_amrwb --enable-libopenjpeg --enable-libopenmpt --enable-libopus --enable-libplacebo --enable-libpulse --enable-librav1e --enable-librsvg --enable-librubberband --enable-libsnappy --enable-libsoxr --enable-libspeex --enable-libsrt --enable-libssh --enable-libsvtav1 --enable-libtheora --enable-libv4l2 --enable-libvidstab --enable-libvmaf --enable-libvorbis --enable-libvpl --enable-libvpx --enable-libwebp --enable-libx264 --enable-libx265 --enable-libxcb --enable-libxml2 --enable-libxvid --enable-libzimg --enable-libzmq --enable-nvdec --enable-nvenc --enable-opencl --enable-opengl --enable-shared --enable-vapoursynth --enable-version3 --enable-vulkan
  libavutil      59. 39.100 / 59. 39.100
  libavcodec     61. 19.101 / 61. 19.101
  libavformat    61.  7.100 / 61.  7.100
  libavdevice    61.  3.100 / 61.  3.100
  libavfilter    10.  4.100 / 10.  4.100
  libswscale      8.  3.100 /  8.  3.100
  libswresample   5.  3.100 /  5.  3.100
  libpostproc    58.  3.100 / 58.  3.100
Input #0, matroska,webm, from 'media/big_buck_bunny.webm':
  Metadata:
    encoder         : Flix
  Duration: 00:01:01.51, start: 0.000000, bitrate: 659 kb/s
  Stream #0:0(eng): Video: vp8, yuv420p(progressive), 640x360, SAR 1:1 DAR 16:9, 24 fps, 24 tbr, 1k tbn (default)
      Metadata:
        title           : VP8 video stream
  Stream #0:1(eng): Audio: vorbis, 22050 Hz, mono, fltp (default)
Stream mapping:
  Stream #0:0 -> #0:0 (vp8 (native) -> gif (native))
Press [q] to stop, [?] for help
[vf#0:0 @ 0x56187ff63500] No filtered frames for output stream, trying to initialize anyway.
Output #0, gif, to '/home/josh/.media-manager/thumbnails/65.gif':
  Metadata:
    encoder         : Lavf61.7.100
  Stream #0:0(eng): Video: gif, bgr8(progressive), 180x101 [SAR 404:405 DAR 16:9], q=2-31, 200 kb/s, 12 fps, 100 tbn (default)
      Metadata:
        title           : VP8 video stream
        encoder         : Lavc61.19.101 gif
[out#0/gif @ 0x56187ff72a80] Error writing trailer: Invalid argument
[out#0/gif @ 0x56187ff72a80] video:0KiB audio:0KiB subtitle:0KiB other streams:0KiB global headers:0KiB muxing overhead: unknown
[out#0/gif @ 0x56187ff72a80] Output file is empty, nothing was encoded(check -ss / -t / -frames parameters if used)
frame=    0 fps=0.0 q=0.0 Lsize=       0KiB time=N/A bitrate=N/A speed=N/A    
Conversion failed!


[DEBUG] Generating animated GIF preview for: media/MrBean.3gp
[DEBUG] Running ffmpeg for GIF: [ffmpeg -i media/MrBean.3gp -vf select='not(mod(t,0.110167))',setpts=N/FRAME_RATE/TB,fps=12,scale=180:101:force_original_aspect_ratio=increase,crop=180:101 -c:v gif -f gif -y /home/josh/.media-manager/thumbnails/67.gif]
[DEBUG] ffmpeg output: ffmpeg version n7.1.1 Copyright (c) 2000-2025 the FFmpeg developers
  built with gcc 15.1.1 (GCC) 20250425
  configuration: --prefix=/usr --disable-debug --disable-static --disable-stripping --enable-amf --enable-avisynth --enable-cuda-llvm --enable-lto --enable-fontconfig --enable-frei0r --enable-gmp --enable-gnutls --enable-gpl --enable-ladspa --enable-libaom --enable-libass --enable-libbluray --enable-libbs2b --enable-libdav1d --enable-libdrm --enable-libdvdnav --enable-libdvdread --enable-libfreetype --enable-libfribidi --enable-libglslang --enable-libgsm --enable-libharfbuzz --enable-libiec61883 --enable-libjack --enable-libjxl --enable-libmodplug --enable-libmp3lame --enable-libopencore_amrnb --enable-libopencore_amrwb --enable-libopenjpeg --enable-libopenmpt --enable-libopus --enable-libplacebo --enable-libpulse --enable-librav1e --enable-librsvg --enable-librubberband --enable-libsnappy --enable-libsoxr --enable-libspeex --enable-libsrt --enable-libssh --enable-libsvtav1 --enable-libtheora --enable-libv4l2 --enable-libvidstab --enable-libvmaf --enable-libvorbis --enable-libvpl --enable-libvpx --enable-libwebp --enable-libx264 --enable-libx265 --enable-libxcb --enable-libxml2 --enable-libxvid --enable-libzimg --enable-libzmq --enable-nvdec --enable-nvenc --enable-opencl --enable-opengl --enable-shared --enable-vapoursynth --enable-version3 --enable-vulkan
  libavutil      59. 39.100 / 59. 39.100
  libavcodec     61. 19.101 / 61. 19.101
  libavformat    61.  7.100 / 61.  7.100
  libavdevice    61.  3.100 / 61.  3.100
  libavfilter    10.  4.100 / 10.  4.100
  libswscale      8.  3.100 /  8.  3.100
  libswresample   5.  3.100 /  5.  3.100
  libpostproc    58.  3.100 / 58.  3.100
Input #0, mov,mp4,m4a,3gp,3g2,mj2, from 'media/MrBean.3gp':
  Metadata:
    major_brand     : 3gp4
    minor_version   : 1024
    compatible_brands: 3gp4isom
    creation_time   : 2004-05-14T13:32:06.000000Z
  Duration: 00:00:13.22, start: 0.000000, bitrate: 77 kb/s
  Stream #0:0[0x1](und): Video: h263 (s263 / 0x33363273), yuv420p, 176x144 [SAR 12:11 DAR 4:3], 62 kb/s, 4.99 fps, 5.06 tbr, 50644 tbn (default)
      Metadata:
        creation_time   : 2004-05-14T13:32:06.000000Z
        vendor_id       : [0][0][0][0]
  Stream #0:1[0x2](und): Audio: amr_nb (amrnb) (samr / 0x726D6173), 8000 Hz, mono, fltp, 12 kb/s (default)
      Metadata:
        creation_time   : 2004-05-14T13:32:06.000000Z
        vendor_id       : [0][0][0][0]
Stream mapping:
  Stream #0:0 -> #0:0 (h263 (native) -> gif (native))
Press [q] to stop, [?] for help
Output #0, gif, to '/home/josh/.media-manager/thumbnails/67.gif':
  Metadata:
    major_brand     : 3gp4
    minor_version   : 1024
    compatible_brands: 3gp4isom
    encoder         : Lavf61.7.100
  Stream #0:0(und): Video: gif, bgr8(pc, gbr/unknown/unknown, progressive), 180x101 [SAR 49:45 DAR 196:101], q=2-31, 200 kb/s, 12 fps, 100 tbn (default)
      Metadata:
        creation_time   : 2004-05-14T13:32:06.000000Z
        vendor_id       : [0][0][0][0]
        encoder         : Lavc61.19.101 gif
[out#0/gif @ 0x55e787647e80] video:7KiB audio:0KiB subtitle:0KiB other streams:0KiB global headers:0KiB muxing overhead: 0.272480%
frame=    2 fps=0.0 q=-0.0 Lsize=       7KiB time=00:00:00.16 bitrate= 353.3kbits/s speed=24.4x    

[DEBUG] Successfully generated animated preview: /home/josh/.media-manager/thumbnails/67.gif
[DEBUG] Rebuilt preview for media/MrBean.3gp -> /home/josh/.media-manager/thumbnails/67.gif
[DEBUG] app.go: Starting file watcher for ./media
[DEBUG] MediaCard MouseIn - hover started
[DEBUG] MouseIn: mediaType=1, hasAnimation=true, mc.content=&{{{} {180 101} {0 0} false 0xc003690100 <nil>} {0 0} 0xc0004ae300 0xc003690180 0 0 false false {{{} {0 0}} 0 0 {{} 0} {{} 0}}}
[DEBUG] MediaCard MouseOut - hover ended
[DEBUG] MouseOut: mediaType=1, hasAnimation=true, animatedGif=true
[DEBUG] MediaCard MouseIn - hover started
[DEBUG] MouseIn: mediaType=1, hasAnimation=true, mc.content=&{{{} {180 101} {0 0} false 0xc003690100 <nil>} {0 0} 0xc0004ae300 0xc003690180 16 -1 false false {{{} {0 0}} 0 0 {{} 0} {{} 0}}}
[DEBUG] MediaCard MouseOut - hover ended
[DEBUG] MouseOut: mediaType=1, hasAnimation=true, animatedGif=true
[DEBUG] MediaCard MouseIn - hover started
[DEBUG] MouseIn: mediaType=1, hasAnimation=true, mc.content=&{{{} {180 99} {0 0} false 0xc00342a100 <nil>} {0 0} 0xc00342a280 0xc00342a180 0 0 false false {{{} {0 0}} 0 0 {{} 0} {{} 0}}}
